<svg width="746" height="557" viewBox="0 0 746 557" fill="none" xmlns="http://www.w3.org/2000/svg">
<g clip-path="url(#clip0_1011_3)">
<g filter="url(#filter0_d_1011_3)">
<g clip-path="url(#clip1_1011_3)">
<rect width="447" height="246" fill="#6244FA"/>
<ellipse cx="69.3884" cy="214.565" rx="125" ry="59" transform="rotate(-34.6164 69.3884 214.565)" fill="#6328C0"/>
<ellipse cx="359.864" cy="80.6522" rx="150.182" ry="92.4012" transform="rotate(-34.6164 359.864 80.6522)" fill="#EA7167"/>
<ellipse cx="243.705" cy="57.3242" rx="115.022" ry="42.9645" transform="rotate(-38.5879 243.705 57.3242)" fill="#CF56BD"/>
<ellipse cx="222.577" cy="228.116" rx="190.461" ry="71.3654" transform="rotate(-41.7799 222.577 228.116)" fill="#5E90E6"/>
<ellipse cx="431.097" cy="197.748" rx="166.591" ry="63.8311" transform="rotate(-45.6511 431.097 197.748)" fill="#620594"/>
<g filter="url(#filter1_b_1011_3)">
<path d="M0 0H447V246H0V0Z" fill="white" fill-opacity="0.01"/>
</g>
<circle cx="56.5" cy="53.5" r="23.5" fill="#FEFFFF"/>
<circle cx="106.5" cy="55.5" r="10.25" fill="url(#paint0_linear_1011_3)" stroke="white" stroke-width="1.5"/>
<path d="M41.125 170.259C39.7339 170.259 38.549 169.88 37.5703 169.123C36.5916 168.36 35.8438 167.255 35.3267 165.808C34.8097 164.356 34.5511 162.601 34.5511 160.545C34.5511 158.502 34.8097 156.757 35.3267 155.31C35.8499 153.858 36.6009 152.75 37.5795 151.987C38.5644 151.217 39.7462 150.832 41.125 150.832C42.5038 150.832 43.6825 151.217 44.6612 151.987C45.6461 152.75 46.397 153.858 46.9141 155.31C47.4373 156.757 47.6989 158.502 47.6989 160.545C47.6989 162.601 47.4403 164.356 46.9233 165.808C46.4062 167.255 45.6584 168.36 44.6797 169.123C43.701 169.88 42.5161 170.259 41.125 170.259ZM41.125 168.227C42.5038 168.227 43.5748 167.562 44.3381 166.233C45.1013 164.903 45.483 163.008 45.483 160.545C45.483 158.908 45.3075 157.514 44.9567 156.363C44.612 155.212 44.1134 154.335 43.4609 153.732C42.8146 153.128 42.036 152.827 41.125 152.827C39.7585 152.827 38.6906 153.501 37.9212 154.849C37.1518 156.191 36.767 158.089 36.767 160.545C36.767 162.183 36.9394 163.574 37.2841 164.719C37.6288 165.864 38.1243 166.735 38.7706 167.332C39.4231 167.929 40.2079 168.227 41.125 168.227ZM62.055 170.259C60.6639 170.259 59.479 169.88 58.5003 169.123C57.5216 168.36 56.7738 167.255 56.2567 165.808C55.7397 164.356 55.4811 162.601 55.4811 160.545C55.4811 158.502 55.7397 156.757 56.2567 155.31C56.7799 153.858 57.5309 152.75 58.5095 151.987C59.4944 151.217 60.6762 150.832 62.055 150.832C63.4338 150.832 64.6125 151.217 65.5912 151.987C66.5761 152.75 67.327 153.858 67.8441 155.31C68.3673 156.757 68.6289 158.502 68.6289 160.545C68.6289 162.601 68.3703 164.356 67.8533 165.808C67.3363 167.255 66.5884 168.36 65.6097 169.123C64.631 169.88 63.4461 170.259 62.055 170.259ZM62.055 168.227C63.4338 168.227 64.5048 167.562 65.2681 166.233C66.0313 164.903 66.413 163.008 66.413 160.545C66.413 158.908 66.2375 157.514 65.8867 156.363C65.542 155.212 65.0434 154.335 64.3909 153.732C63.7446 153.128 62.966 152.827 62.055 152.827C60.6885 152.827 59.6206 153.501 58.8512 154.849C58.0818 156.191 57.697 158.089 57.697 160.545C57.697 162.183 57.8694 163.574 58.2141 164.719C58.5588 165.864 59.0543 166.735 59.7006 167.332C60.3531 167.929 61.1379 168.227 62.055 168.227ZM82.985 170.259C81.5939 170.259 80.409 169.88 79.4303 169.123C78.4516 168.36 77.7038 167.255 77.1867 165.808C76.6697 164.356 76.4111 162.601 76.4111 160.545C76.4111 158.502 76.6697 156.757 77.1867 155.31C77.7099 153.858 78.4609 152.75 79.4395 151.987C80.4244 151.217 81.6062 150.832 82.985 150.832C84.3638 150.832 85.5425 151.217 86.5212 151.987C87.5061 152.75 88.257 153.858 88.7741 155.31C89.2973 156.757 89.5589 158.502 89.5589 160.545C89.5589 162.601 89.3003 164.356 88.7833 165.808C88.2663 167.255 87.5184 168.36 86.5397 169.123C85.561 169.88 84.3761 170.259 82.985 170.259ZM82.985 168.227C84.3638 168.227 85.4348 167.562 86.1981 166.233C86.9613 164.903 87.343 163.008 87.343 160.545C87.343 158.908 87.1675 157.514 86.8167 156.363C86.472 155.212 85.9734 154.335 85.3209 153.732C84.6746 153.128 83.896 152.827 82.985 152.827C81.6185 152.827 80.5506 153.501 79.7812 154.849C79.0118 156.191 78.627 158.089 78.627 160.545C78.627 162.183 78.7994 163.574 79.1441 164.719C79.4888 165.864 79.9843 166.735 80.6306 167.332C81.2831 167.929 82.0679 168.227 82.985 168.227ZM103.915 170.259C102.524 170.259 101.339 169.88 100.36 169.123C99.3816 168.36 98.6338 167.255 98.1167 165.808C97.5997 164.356 97.3411 162.601 97.3411 160.545C97.3411 158.502 97.5997 156.757 98.1167 155.31C98.6399 153.858 99.3909 152.75 100.37 151.987C101.354 151.217 102.536 150.832 103.915 150.832C105.294 150.832 106.473 151.217 107.451 151.987C108.436 152.75 109.187 153.858 109.704 155.31C110.227 156.757 110.489 158.502 110.489 160.545C110.489 162.601 110.23 164.356 109.713 165.808C109.196 167.255 108.448 168.36 107.47 169.123C106.491 169.88 105.306 170.259 103.915 170.259ZM103.915 168.227C105.294 168.227 106.365 167.562 107.128 166.233C107.891 164.903 108.273 163.008 108.273 160.545C108.273 158.908 108.098 157.514 107.747 156.363C107.402 155.212 106.903 154.335 106.251 153.732C105.605 153.128 104.826 152.827 103.915 152.827C102.549 152.827 101.481 153.501 100.711 154.849C99.9418 156.191 99.557 158.089 99.557 160.545C99.557 162.183 99.7294 163.574 100.074 164.719C100.419 165.864 100.914 166.735 101.561 167.332C102.213 167.929 102.998 168.227 103.915 168.227ZM136.838 170.259C135.446 170.259 134.262 169.88 133.283 169.123C132.304 168.36 131.556 167.255 131.039 165.808C130.522 164.356 130.264 162.601 130.264 160.545C130.264 158.502 130.522 156.757 131.039 155.31C131.562 153.858 132.313 152.75 133.292 151.987C134.277 151.217 135.459 150.832 136.838 150.832C138.216 150.832 139.395 151.217 140.374 151.987C141.359 152.75 142.11 153.858 142.627 155.31C143.15 156.757 143.411 158.502 143.411 160.545C143.411 162.601 143.153 164.356 142.636 165.808C142.119 167.255 141.371 168.36 140.392 169.123C139.413 169.88 138.229 170.259 136.838 170.259ZM136.838 168.227C138.216 168.227 139.287 167.562 140.051 166.233C140.814 164.903 141.195 163.008 141.195 160.545C141.195 158.908 141.02 157.514 140.669 156.363C140.324 155.212 139.826 154.335 139.173 153.732C138.527 153.128 137.748 152.827 136.838 152.827C135.471 152.827 134.403 153.501 133.634 154.849C132.864 156.191 132.48 158.089 132.48 160.545C132.48 162.183 132.652 163.574 132.997 164.719C133.341 165.864 133.837 166.735 134.483 167.332C135.136 167.929 135.92 168.227 136.838 168.227ZM157.768 170.259C156.376 170.259 155.192 169.88 154.213 169.123C153.234 168.36 152.486 167.255 151.969 165.808C151.452 164.356 151.194 162.601 151.194 160.545C151.194 158.502 151.452 156.757 151.969 155.31C152.492 153.858 153.243 152.75 154.222 151.987C155.207 151.217 156.389 150.832 157.768 150.832C159.146 150.832 160.325 151.217 161.304 151.987C162.289 152.75 163.04 153.858 163.557 155.31C164.08 156.757 164.341 158.502 164.341 160.545C164.341 162.601 164.083 164.356 163.566 165.808C163.049 167.255 162.301 168.36 161.322 169.123C160.343 169.88 159.159 170.259 157.768 170.259ZM157.768 168.227C159.146 168.227 160.217 167.562 160.981 166.233C161.744 164.903 162.125 163.008 162.125 160.545C162.125 158.908 161.95 157.514 161.599 156.363C161.254 155.212 160.756 154.335 160.103 153.732C159.457 153.128 158.678 152.827 157.768 152.827C156.401 152.827 155.333 153.501 154.564 154.849C153.794 156.191 153.41 158.089 153.41 160.545C153.41 162.183 153.582 163.574 153.927 164.719C154.271 165.864 154.767 166.735 155.413 167.332C156.066 167.929 156.85 168.227 157.768 168.227ZM178.697 170.259C177.306 170.259 176.122 169.88 175.143 169.123C174.164 168.36 173.416 167.255 172.899 165.808C172.382 164.356 172.124 162.601 172.124 160.545C172.124 158.502 172.382 156.757 172.899 155.31C173.422 153.858 174.173 152.75 175.152 151.987C176.137 151.217 177.319 150.832 178.697 150.832C180.076 150.832 181.255 151.217 182.234 151.987C183.219 152.75 183.97 153.858 184.487 155.31C185.01 156.757 185.271 158.502 185.271 160.545C185.271 162.601 185.013 164.356 184.496 165.808C183.979 167.255 183.231 168.36 182.252 169.123C181.273 169.88 180.089 170.259 178.697 170.259ZM178.697 168.227C180.076 168.227 181.147 167.562 181.911 166.233C182.674 164.903 183.055 163.008 183.055 160.545C183.055 158.908 182.88 157.514 182.529 156.363C182.184 155.212 181.686 154.335 181.033 153.732C180.387 153.128 179.608 152.827 178.697 152.827C177.331 152.827 176.263 153.501 175.494 154.849C174.724 156.191 174.34 158.089 174.34 160.545C174.34 162.183 174.512 163.574 174.857 164.719C175.201 165.864 175.697 166.735 176.343 167.332C176.996 167.929 177.78 168.227 178.697 168.227ZM199.628 170.259C198.236 170.259 197.052 169.88 196.073 169.123C195.094 168.36 194.346 167.255 193.829 165.808C193.312 164.356 193.054 162.601 193.054 160.545C193.054 158.502 193.312 156.757 193.829 155.31C194.352 153.858 195.103 152.75 196.082 151.987C197.067 151.217 198.249 150.832 199.628 150.832C201.006 150.832 202.185 151.217 203.164 151.987C204.149 152.75 204.9 153.858 205.417 155.31C205.94 156.757 206.201 158.502 206.201 160.545C206.201 162.601 205.943 164.356 205.426 165.808C204.909 167.255 204.161 168.36 203.182 169.123C202.203 169.88 201.019 170.259 199.628 170.259ZM199.628 168.227C201.006 168.227 202.077 167.562 202.841 166.233C203.604 164.903 203.985 163.008 203.985 160.545C203.985 158.908 203.81 157.514 203.459 156.363C203.114 155.212 202.616 154.335 201.963 153.732C201.317 153.128 200.538 152.827 199.628 152.827C198.261 152.827 197.193 153.501 196.424 154.849C195.654 156.191 195.27 158.089 195.27 160.545C195.27 162.183 195.442 163.574 195.787 164.719C196.131 165.864 196.627 166.735 197.273 167.332C197.926 167.929 198.71 168.227 199.628 168.227ZM232.55 170.259C231.159 170.259 229.974 169.88 228.995 169.123C228.017 168.36 227.269 167.255 226.752 165.808C226.235 164.356 225.976 162.601 225.976 160.545C225.976 158.502 226.235 156.757 226.752 155.31C227.275 153.858 228.026 152.75 229.005 151.987C229.989 151.217 231.171 150.832 232.55 150.832C233.929 150.832 235.108 151.217 236.086 151.987C237.071 152.75 237.822 153.858 238.339 155.31C238.862 156.757 239.124 158.502 239.124 160.545C239.124 162.601 238.865 164.356 238.348 165.808C237.831 167.255 237.083 168.36 236.105 169.123C235.126 169.88 233.941 170.259 232.55 170.259ZM232.55 168.227C233.929 168.227 235 167.562 235.763 166.233C236.526 164.903 236.908 163.008 236.908 160.545C236.908 158.908 236.733 157.514 236.382 156.363C236.037 155.212 235.538 154.335 234.886 153.732C234.24 153.128 233.461 152.827 232.55 152.827C231.184 152.827 230.116 153.501 229.346 154.849C228.577 156.191 228.192 158.089 228.192 160.545C228.192 162.183 228.364 163.574 228.709 164.719C229.054 165.864 229.549 166.735 230.196 167.332C230.848 167.929 231.633 168.227 232.55 168.227ZM253.48 170.259C252.089 170.259 250.904 169.88 249.925 169.123C248.947 168.36 248.199 167.255 247.682 165.808C247.165 164.356 246.906 162.601 246.906 160.545C246.906 158.502 247.165 156.757 247.682 155.31C248.205 153.858 248.956 152.75 249.935 151.987C250.919 151.217 252.101 150.832 253.48 150.832C254.859 150.832 256.038 151.217 257.016 151.987C258.001 152.75 258.752 153.858 259.269 155.31C259.792 156.757 260.054 158.502 260.054 160.545C260.054 162.601 259.795 164.356 259.278 165.808C258.761 167.255 258.013 168.36 257.035 169.123C256.056 169.88 254.871 170.259 253.48 170.259ZM253.48 168.227C254.859 168.227 255.93 167.562 256.693 166.233C257.456 164.903 257.838 163.008 257.838 160.545C257.838 158.908 257.663 157.514 257.312 156.363C256.967 155.212 256.468 154.335 255.816 153.732C255.17 153.128 254.391 152.827 253.48 152.827C252.114 152.827 251.046 153.501 250.276 154.849C249.507 156.191 249.122 158.089 249.122 160.545C249.122 162.183 249.294 163.574 249.639 164.719C249.984 165.864 250.479 166.735 251.126 167.332C251.778 167.929 252.563 168.227 253.48 168.227ZM274.41 170.259C273.019 170.259 271.834 169.88 270.855 169.123C269.877 168.36 269.129 167.255 268.612 165.808C268.095 164.356 267.836 162.601 267.836 160.545C267.836 158.502 268.095 156.757 268.612 155.31C269.135 153.858 269.886 152.75 270.865 151.987C271.849 151.217 273.031 150.832 274.41 150.832C275.789 150.832 276.968 151.217 277.946 151.987C278.931 152.75 279.682 153.858 280.199 155.31C280.722 156.757 280.984 158.502 280.984 160.545C280.984 162.601 280.725 164.356 280.208 165.808C279.691 167.255 278.943 168.36 277.965 169.123C276.986 169.88 275.801 170.259 274.41 170.259ZM274.41 168.227C275.789 168.227 276.86 167.562 277.623 166.233C278.386 164.903 278.768 163.008 278.768 160.545C278.768 158.908 278.593 157.514 278.242 156.363C277.897 155.212 277.398 154.335 276.746 153.732C276.1 153.128 275.321 152.827 274.41 152.827C273.044 152.827 271.976 153.501 271.206 154.849C270.437 156.191 270.052 158.089 270.052 160.545C270.052 162.183 270.224 163.574 270.569 164.719C270.914 165.864 271.409 166.735 272.056 167.332C272.708 167.929 273.493 168.227 274.41 168.227ZM295.34 170.259C293.949 170.259 292.764 169.88 291.785 169.123C290.807 168.36 290.059 167.255 289.542 165.808C289.025 164.356 288.766 162.601 288.766 160.545C288.766 158.502 289.025 156.757 289.542 155.31C290.065 153.858 290.816 152.75 291.795 151.987C292.779 151.217 293.961 150.832 295.34 150.832C296.719 150.832 297.898 151.217 298.876 151.987C299.861 152.75 300.612 153.858 301.129 155.31C301.652 156.757 301.914 158.502 301.914 160.545C301.914 162.601 301.655 164.356 301.138 165.808C300.621 167.255 299.873 168.36 298.895 169.123C297.916 169.88 296.731 170.259 295.34 170.259ZM295.34 168.227C296.719 168.227 297.79 167.562 298.553 166.233C299.316 164.903 299.698 163.008 299.698 160.545C299.698 158.908 299.523 157.514 299.172 156.363C298.827 155.212 298.328 154.335 297.676 153.732C297.03 153.128 296.251 152.827 295.34 152.827C293.974 152.827 292.906 153.501 292.136 154.849C291.367 156.191 290.982 158.089 290.982 160.545C290.982 162.183 291.154 163.574 291.499 164.719C291.844 165.864 292.339 166.735 292.986 167.332C293.638 167.929 294.423 168.227 295.34 168.227ZM328.263 170.259C326.871 170.259 325.687 169.88 324.708 169.123C323.729 168.36 322.981 167.255 322.464 165.808C321.947 164.356 321.689 162.601 321.689 160.545C321.689 158.502 321.947 156.757 322.464 155.31C322.987 153.858 323.738 152.75 324.717 151.987C325.702 151.217 326.884 150.832 328.263 150.832C329.641 150.832 330.82 151.217 331.799 151.987C332.784 152.75 333.535 153.858 334.052 155.31C334.575 156.757 334.836 158.502 334.836 160.545C334.836 162.601 334.578 164.356 334.061 165.808C333.544 167.255 332.796 168.36 331.817 169.123C330.839 169.88 329.654 170.259 328.263 170.259ZM328.263 168.227C329.641 168.227 330.712 167.562 331.476 166.233C332.239 164.903 332.62 163.008 332.62 160.545C332.62 158.908 332.445 157.514 332.094 156.363C331.749 155.212 331.251 154.335 330.598 153.732C329.952 153.128 329.173 152.827 328.263 152.827C326.896 152.827 325.828 153.501 325.059 154.849C324.289 156.191 323.905 158.089 323.905 160.545C323.905 162.183 324.077 163.574 324.422 164.719C324.766 165.864 325.262 166.735 325.908 167.332C326.561 167.929 327.345 168.227 328.263 168.227ZM349.193 170.259C347.801 170.259 346.617 169.88 345.638 169.123C344.659 168.36 343.911 167.255 343.394 165.808C342.877 164.356 342.619 162.601 342.619 160.545C342.619 158.502 342.877 156.757 343.394 155.31C343.917 153.858 344.668 152.75 345.647 151.987C346.632 151.217 347.814 150.832 349.193 150.832C350.571 150.832 351.75 151.217 352.729 151.987C353.714 152.75 354.465 153.858 354.982 155.31C355.505 156.757 355.766 158.502 355.766 160.545C355.766 162.601 355.508 164.356 354.991 165.808C354.474 167.255 353.726 168.36 352.747 169.123C351.768 169.88 350.584 170.259 349.193 170.259ZM349.193 168.227C350.571 168.227 351.642 167.562 352.406 166.233C353.169 164.903 353.55 163.008 353.55 160.545C353.55 158.908 353.375 157.514 353.024 156.363C352.679 155.212 352.181 154.335 351.528 153.732C350.882 153.128 350.103 152.827 349.193 152.827C347.826 152.827 346.758 153.501 345.989 154.849C345.219 156.191 344.835 158.089 344.835 160.545C344.835 162.183 345.007 163.574 345.352 164.719C345.696 165.864 346.192 166.735 346.838 167.332C347.491 167.929 348.275 168.227 349.193 168.227ZM370.122 170.259C368.731 170.259 367.547 169.88 366.568 169.123C365.589 168.36 364.841 167.255 364.324 165.808C363.807 164.356 363.549 162.601 363.549 160.545C363.549 158.502 363.807 156.757 364.324 155.31C364.847 153.858 365.598 152.75 366.577 151.987C367.562 151.217 368.744 150.832 370.122 150.832C371.501 150.832 372.68 151.217 373.659 151.987C374.644 152.75 375.395 153.858 375.912 155.31C376.435 156.757 376.696 158.502 376.696 160.545C376.696 162.601 376.438 164.356 375.921 165.808C375.404 167.255 374.656 168.36 373.677 169.123C372.698 169.88 371.514 170.259 370.122 170.259ZM370.122 168.227C371.501 168.227 372.572 167.562 373.336 166.233C374.099 164.903 374.48 163.008 374.48 160.545C374.48 158.908 374.305 157.514 373.954 156.363C373.609 155.212 373.111 154.335 372.458 153.732C371.812 153.128 371.033 152.827 370.122 152.827C368.756 152.827 367.688 153.501 366.919 154.849C366.149 156.191 365.765 158.089 365.765 160.545C365.765 162.183 365.937 163.574 366.282 164.719C366.626 165.864 367.122 166.735 367.768 167.332C368.421 167.929 369.205 168.227 370.122 168.227ZM391.052 170.259C389.661 170.259 388.476 169.88 387.498 169.123C386.519 168.36 385.771 167.255 385.254 165.808C384.737 164.356 384.479 162.601 384.479 160.545C384.479 158.502 384.737 156.757 385.254 155.31C385.777 153.858 386.528 152.75 387.507 151.987C388.492 151.217 389.674 150.832 391.052 150.832C392.431 150.832 393.61 151.217 394.589 151.987C395.574 152.75 396.325 153.858 396.842 155.31C397.365 156.757 397.626 158.502 397.626 160.545C397.626 162.601 397.368 164.356 396.851 165.808C396.334 167.255 395.586 168.36 394.607 169.123C393.628 169.88 392.444 170.259 391.052 170.259ZM391.052 168.227C392.431 168.227 393.502 167.562 394.266 166.233C395.029 164.903 395.41 163.008 395.41 160.545C395.41 158.908 395.235 157.514 394.884 156.363C394.539 155.212 394.041 154.335 393.388 153.732C392.742 153.128 391.963 152.827 391.052 152.827C389.686 152.827 388.618 153.501 387.849 154.849C387.079 156.191 386.695 158.089 386.695 160.545C386.695 162.183 386.867 163.574 387.212 164.719C387.556 165.864 388.052 166.735 388.698 167.332C389.351 167.929 390.135 168.227 391.052 168.227Z" fill="white"/>
<path d="M37.564 214.163V207.758H39.4619V214.163C39.4619 214.78 39.3265 215.312 39.0557 215.756C38.7848 216.196 38.4146 216.535 37.9448 216.771C37.4793 217.008 36.9546 217.127 36.3706 217.127C35.7655 217.127 35.2301 217.025 34.7646 216.822C34.2992 216.619 33.9331 216.308 33.6665 215.889C33.3999 215.466 33.2666 214.931 33.2666 214.283H35.1772C35.1772 214.622 35.2238 214.89 35.3169 215.089C35.4142 215.288 35.5518 215.43 35.7295 215.515C35.9072 215.599 36.1209 215.642 36.3706 215.642C36.6118 215.642 36.8213 215.584 36.999 215.47C37.1768 215.356 37.3143 215.189 37.4116 214.969C37.5132 214.749 37.564 214.48 37.564 214.163ZM47.1751 209.338L44.6614 217H42.6365L46.0706 207.758H47.3592L47.1751 209.338ZM49.2635 217L46.7434 209.338L46.5403 207.758H47.8416L51.2947 217H49.2635ZM49.1492 213.56V215.051H44.2679V213.56H49.1492ZM62.1436 207.758V217H60.2393L56.5259 210.805V217H54.6216V207.758H56.5259L60.2457 213.959V207.758H62.1436ZM72.472 215.515V217H67.5526V215.515H72.472ZM68.1746 207.758V217H66.2704V207.758H68.1746ZM71.8309 211.522V212.969H67.5526V211.522H71.8309ZM72.4657 207.758V209.25H67.5526V207.758H72.4657ZM85.518 209.338L83.0043 217H80.9794L84.4135 207.758H85.702L85.518 209.338ZM87.6063 217L85.0863 209.338L84.8832 207.758H86.1845L89.6376 217H87.6063ZM87.4921 213.56V215.051H82.6107V213.56H87.4921ZM96.5637 213.706H94.2087V212.22H96.5637C96.9276 212.22 97.2238 212.161 97.4523 212.042C97.6808 211.92 97.848 211.75 97.9538 211.535C98.0596 211.319 98.1125 211.076 98.1125 210.805C98.1125 210.53 98.0596 210.274 97.9538 210.037C97.848 209.8 97.6808 209.609 97.4523 209.465C97.2238 209.321 96.9276 209.25 96.5637 209.25H94.8688V217H92.9645V207.758H96.5637C97.2873 207.758 97.9072 207.889 98.4235 208.151C98.944 208.41 99.3418 208.767 99.6169 209.224C99.8919 209.681 100.029 210.204 100.029 210.792C100.029 211.389 99.8919 211.905 99.6169 212.341C99.3418 212.777 98.944 213.113 98.4235 213.35C97.9072 213.587 97.2873 213.706 96.5637 213.706ZM107.413 213.706H105.058V212.22H107.413C107.776 212.22 108.073 212.161 108.301 212.042C108.53 211.92 108.697 211.75 108.803 211.535C108.908 211.319 108.961 211.076 108.961 210.805C108.961 210.53 108.908 210.274 108.803 210.037C108.697 209.8 108.53 209.609 108.301 209.465C108.073 209.321 107.776 209.25 107.413 209.25H105.718V217H103.813V207.758H107.413C108.136 207.758 108.756 207.889 109.272 208.151C109.793 208.41 110.191 208.767 110.466 209.224C110.741 209.681 110.878 210.204 110.878 210.792C110.878 211.389 110.741 211.905 110.466 212.341C110.191 212.777 109.793 213.113 109.272 213.35C108.756 213.587 108.136 213.706 107.413 213.706ZM120.604 215.515V217H115.951V215.515H120.604ZM116.567 207.758V217H114.662V207.758H116.567ZM130.367 215.515V217H125.448V215.515H130.367ZM126.07 207.758V217H124.166V207.758H126.07ZM129.726 211.522V212.969H125.448V211.522H129.726ZM130.361 207.758V209.25H125.448V207.758H130.361ZM138.76 214.582C138.76 214.417 138.734 214.268 138.683 214.137C138.637 214.002 138.548 213.879 138.417 213.769C138.286 213.655 138.102 213.543 137.865 213.433C137.628 213.323 137.321 213.208 136.944 213.09C136.525 212.954 136.127 212.802 135.751 212.633C135.378 212.464 135.048 212.267 134.761 212.042C134.477 211.814 134.253 211.549 134.088 211.249C133.927 210.949 133.846 210.599 133.846 210.202C133.846 209.817 133.931 209.467 134.1 209.154C134.27 208.837 134.507 208.566 134.811 208.342C135.116 208.113 135.476 207.938 135.89 207.815C136.309 207.692 136.769 207.631 137.268 207.631C137.949 207.631 138.544 207.754 139.052 207.999C139.559 208.244 139.953 208.581 140.232 209.008C140.516 209.436 140.658 209.924 140.658 210.475H138.766C138.766 210.204 138.709 209.967 138.595 209.764C138.485 209.556 138.315 209.393 138.087 209.275C137.862 209.156 137.579 209.097 137.236 209.097C136.906 209.097 136.631 209.148 136.411 209.25C136.191 209.347 136.026 209.48 135.916 209.649C135.806 209.814 135.751 210.001 135.751 210.208C135.751 210.365 135.789 210.506 135.865 210.633C135.945 210.76 136.064 210.879 136.221 210.989C136.377 211.099 136.57 211.202 136.798 211.3C137.027 211.397 137.291 211.492 137.592 211.585C138.095 211.738 138.537 211.909 138.918 212.1C139.303 212.29 139.625 212.504 139.883 212.741C140.141 212.978 140.336 213.246 140.467 213.547C140.598 213.847 140.664 214.188 140.664 214.569C140.664 214.971 140.586 215.331 140.429 215.648C140.272 215.965 140.046 216.234 139.75 216.454C139.454 216.674 139.1 216.841 138.69 216.956C138.279 217.07 137.82 217.127 137.312 217.127C136.855 217.127 136.405 217.068 135.96 216.949C135.516 216.826 135.112 216.642 134.748 216.397C134.388 216.152 134.1 215.838 133.885 215.458C133.669 215.077 133.561 214.626 133.561 214.105H135.471C135.471 214.393 135.516 214.637 135.605 214.835C135.694 215.034 135.818 215.195 135.979 215.318C136.144 215.441 136.339 215.529 136.563 215.584C136.792 215.639 137.041 215.667 137.312 215.667C137.642 215.667 137.913 215.62 138.125 215.527C138.341 215.434 138.499 215.305 138.601 215.14C138.707 214.975 138.76 214.789 138.76 214.582ZM150.63 215.515V217H145.711V215.515H150.63ZM146.333 207.758V217H144.429V207.758H146.333ZM149.989 211.522V212.969H145.711V211.522H149.989ZM150.624 207.758V209.25H145.711V207.758H150.624ZM160.413 215.515V217H155.494V215.515H160.413ZM156.116 207.758V217H154.211V207.758H156.116ZM159.772 211.522V212.969H155.494V211.522H159.772ZM160.407 207.758V209.25H155.494V207.758H160.407ZM166.831 217H164.819L164.832 215.515H166.831C167.331 215.515 167.752 215.403 168.094 215.178C168.437 214.95 168.695 214.618 168.869 214.182C169.047 213.746 169.135 213.219 169.135 212.601V212.15C169.135 211.676 169.085 211.26 168.983 210.9C168.886 210.54 168.74 210.238 168.545 209.992C168.35 209.747 168.111 209.563 167.828 209.44C167.544 209.313 167.218 209.25 166.85 209.25H164.781V207.758H166.85C167.468 207.758 168.033 207.864 168.545 208.075C169.061 208.283 169.508 208.581 169.884 208.97C170.261 209.36 170.551 209.825 170.754 210.367C170.961 210.904 171.065 211.503 171.065 212.163V212.601C171.065 213.257 170.961 213.856 170.754 214.397C170.551 214.939 170.261 215.405 169.884 215.794C169.512 216.179 169.066 216.477 168.545 216.689C168.029 216.896 167.457 217 166.831 217ZM165.898 207.758V217H163.994V207.758H165.898Z" fill="white"/>
<path d="M365.383 211.148V212.871C365.383 213.618 365.303 214.263 365.144 214.806C364.984 215.343 364.754 215.785 364.453 216.132C364.157 216.474 363.804 216.727 363.394 216.891C362.983 217.055 362.528 217.137 362.026 217.137C361.625 217.137 361.252 217.087 360.905 216.986C360.559 216.882 360.247 216.72 359.969 216.501C359.695 216.282 359.458 216.007 359.258 215.674C359.062 215.337 358.911 214.936 358.807 214.471C358.702 214.006 358.649 213.473 358.649 212.871V211.148C358.649 210.401 358.729 209.761 358.889 209.228C359.053 208.69 359.283 208.25 359.579 207.908C359.88 207.566 360.235 207.316 360.646 207.156C361.056 206.992 361.511 206.91 362.013 206.91C362.414 206.91 362.785 206.963 363.127 207.067C363.473 207.168 363.785 207.325 364.063 207.539C364.341 207.753 364.578 208.029 364.774 208.366C364.97 208.699 365.121 209.098 365.226 209.562C365.33 210.023 365.383 210.551 365.383 211.148ZM363.407 213.131V210.882C363.407 210.522 363.387 210.207 363.346 209.938C363.309 209.67 363.252 209.442 363.175 209.255C363.097 209.063 363.002 208.909 362.888 208.79C362.774 208.672 362.644 208.585 362.498 208.53C362.352 208.476 362.19 208.448 362.013 208.448C361.789 208.448 361.591 208.492 361.418 208.578C361.249 208.665 361.106 208.804 360.987 208.995C360.869 209.182 360.778 209.433 360.714 209.747C360.655 210.057 360.625 210.435 360.625 210.882V213.131C360.625 213.491 360.643 213.808 360.68 214.081C360.721 214.354 360.78 214.589 360.857 214.785C360.939 214.977 361.035 215.134 361.145 215.257C361.258 215.375 361.388 215.462 361.534 215.517C361.685 215.571 361.849 215.599 362.026 215.599C362.245 215.599 362.439 215.555 362.607 215.469C362.781 215.378 362.926 215.236 363.045 215.045C363.168 214.849 363.259 214.594 363.318 214.279C363.378 213.965 363.407 213.582 363.407 213.131ZM376.712 211.148V212.871C376.712 213.618 376.632 214.263 376.473 214.806C376.313 215.343 376.083 215.785 375.782 216.132C375.486 216.474 375.133 216.727 374.723 216.891C374.312 217.055 373.857 217.137 373.355 217.137C372.954 217.137 372.581 217.087 372.234 216.986C371.888 216.882 371.576 216.72 371.298 216.501C371.024 216.282 370.787 216.007 370.587 215.674C370.391 215.337 370.241 214.936 370.136 214.471C370.031 214.006 369.978 213.473 369.978 212.871V211.148C369.978 210.401 370.058 209.761 370.218 209.228C370.382 208.69 370.612 208.25 370.908 207.908C371.209 207.566 371.564 207.316 371.975 207.156C372.385 206.992 372.84 206.91 373.342 206.91C373.743 206.91 374.114 206.963 374.456 207.067C374.802 207.168 375.115 207.325 375.393 207.539C375.671 207.753 375.908 208.029 376.103 208.366C376.299 208.699 376.45 209.098 376.555 209.562C376.659 210.023 376.712 210.551 376.712 211.148ZM374.736 213.131V210.882C374.736 210.522 374.716 210.207 374.675 209.938C374.638 209.67 374.581 209.442 374.504 209.255C374.426 209.063 374.331 208.909 374.217 208.79C374.103 208.672 373.973 208.585 373.827 208.53C373.681 208.476 373.519 208.448 373.342 208.448C373.118 208.448 372.92 208.492 372.747 208.578C372.578 208.665 372.435 208.804 372.316 208.995C372.198 209.182 372.107 209.433 372.043 209.747C371.984 210.057 371.954 210.435 371.954 210.882V213.131C371.954 213.491 371.972 213.808 372.009 214.081C372.05 214.354 372.109 214.589 372.186 214.785C372.269 214.977 372.364 215.134 372.474 215.257C372.588 215.375 372.717 215.462 372.863 215.517C373.014 215.571 373.178 215.599 373.355 215.599C373.574 215.599 373.768 215.555 373.936 215.469C374.11 215.378 374.255 215.236 374.374 215.045C374.497 214.849 374.588 214.594 374.647 214.279C374.707 213.965 374.736 213.582 374.736 213.131ZM385.676 207.047L382.025 217.854H380.562L384.213 207.047H385.676ZM396.526 211.148V212.871C396.526 213.618 396.446 214.263 396.287 214.806C396.127 215.343 395.897 215.785 395.597 216.132C395.3 216.474 394.947 216.727 394.537 216.891C394.127 217.055 393.671 217.137 393.17 217.137C392.769 217.137 392.395 217.087 392.049 216.986C391.702 216.882 391.39 216.72 391.112 216.501C390.839 216.282 390.602 216.007 390.401 215.674C390.205 215.337 390.055 214.936 389.95 214.471C389.845 214.006 389.793 213.473 389.793 212.871V211.148C389.793 210.401 389.873 209.761 390.032 209.228C390.196 208.69 390.426 208.25 390.723 207.908C391.023 207.566 391.379 207.316 391.789 207.156C392.199 206.992 392.655 206.91 393.156 206.91C393.557 206.91 393.929 206.963 394.27 207.067C394.617 207.168 394.929 207.325 395.207 207.539C395.485 207.753 395.722 208.029 395.918 208.366C396.114 208.699 396.264 209.098 396.369 209.562C396.474 210.023 396.526 210.551 396.526 211.148ZM394.551 213.131V210.882C394.551 210.522 394.53 210.207 394.489 209.938C394.453 209.67 394.396 209.442 394.318 209.255C394.241 209.063 394.145 208.909 394.031 208.79C393.917 208.672 393.787 208.585 393.641 208.53C393.496 208.476 393.334 208.448 393.156 208.448C392.933 208.448 392.735 208.492 392.561 208.578C392.393 208.665 392.249 208.804 392.131 208.995C392.012 209.182 391.921 209.433 391.857 209.747C391.798 210.057 391.768 210.435 391.768 210.882V213.131C391.768 213.491 391.787 213.808 391.823 214.081C391.864 214.354 391.923 214.589 392.001 214.785C392.083 214.977 392.179 215.134 392.288 215.257C392.402 215.375 392.532 215.462 392.678 215.517C392.828 215.571 392.992 215.599 393.17 215.599C393.389 215.599 393.582 215.555 393.751 215.469C393.924 215.378 394.07 215.236 394.188 215.045C394.311 214.849 394.403 214.594 394.462 214.279C394.521 213.965 394.551 213.582 394.551 213.131ZM407.855 211.148V212.871C407.855 213.618 407.776 214.263 407.616 214.806C407.457 215.343 407.226 215.785 406.926 216.132C406.629 216.474 406.276 216.727 405.866 216.891C405.456 217.055 405 217.137 404.499 217.137C404.098 217.137 403.724 217.087 403.378 216.986C403.031 216.882 402.719 216.72 402.441 216.501C402.168 216.282 401.931 216.007 401.73 215.674C401.534 215.337 401.384 214.936 401.279 214.471C401.174 214.006 401.122 213.473 401.122 212.871V211.148C401.122 210.401 401.202 209.761 401.361 209.228C401.525 208.69 401.755 208.25 402.052 207.908C402.352 207.566 402.708 207.316 403.118 207.156C403.528 206.992 403.984 206.91 404.485 206.91C404.886 206.91 405.258 206.963 405.599 207.067C405.946 207.168 406.258 207.325 406.536 207.539C406.814 207.753 407.051 208.029 407.247 208.366C407.443 208.699 407.593 209.098 407.698 209.562C407.803 210.023 407.855 210.551 407.855 211.148ZM405.88 213.131V210.882C405.88 210.522 405.859 210.207 405.818 209.938C405.782 209.67 405.725 209.442 405.647 209.255C405.57 209.063 405.474 208.909 405.36 208.79C405.246 208.672 405.116 208.585 404.971 208.53C404.825 208.476 404.663 208.448 404.485 208.448C404.262 208.448 404.064 208.492 403.89 208.578C403.722 208.665 403.578 208.804 403.46 208.995C403.341 209.182 403.25 209.433 403.186 209.747C403.127 210.057 403.097 210.435 403.097 210.882V213.131C403.097 213.491 403.116 213.808 403.152 214.081C403.193 214.354 403.252 214.589 403.33 214.785C403.412 214.977 403.508 215.134 403.617 215.257C403.731 215.375 403.861 215.462 404.007 215.517C404.157 215.571 404.321 215.599 404.499 215.599C404.718 215.599 404.911 215.555 405.08 215.469C405.253 215.378 405.399 215.236 405.517 215.045C405.64 214.849 405.732 214.594 405.791 214.279C405.85 213.965 405.88 213.582 405.88 213.131Z" fill="white"/>
</g>
<rect x="0.5" y="0.5" width="446" height="245" rx="9.5" stroke="black" shape-rendering="crispEdges"/>
<rect x="0.5" y="0.5" width="446" height="245" rx="9.5" stroke="black" stroke-opacity="0.2" shape-rendering="crispEdges"/>
<rect x="0.5" y="0.5" width="446" height="245" rx="9.5" stroke="black" stroke-opacity="0.2" shape-rendering="crispEdges"/>
</g>
<g filter="url(#filter2_d_1011_3)">
<g clip-path="url(#clip2_1011_3)">
<rect x="21" y="285" width="447" height="246" fill="#6244FA"/>
<ellipse cx="90.3884" cy="499.565" rx="125" ry="59" transform="rotate(-34.6164 90.3884 499.565)" fill="#6328C0"/>
<ellipse cx="380.864" cy="365.652" rx="150.182" ry="92.4012" transform="rotate(-34.6164 380.864 365.652)" fill="#EA7167"/>
<ellipse cx="264.705" cy="342.324" rx="115.022" ry="42.9645" transform="rotate(-38.5879 264.705 342.324)" fill="#CF56BD"/>
<ellipse cx="243.577" cy="513.116" rx="190.461" ry="71.3654" transform="rotate(-41.7799 243.577 513.116)" fill="#5E90E6"/>
<ellipse cx="452.097" cy="482.748" rx="166.591" ry="63.8311" transform="rotate(-45.6511 452.097 482.748)" fill="#620594"/>
<g filter="url(#filter3_b_1011_3)">
<path d="M21 285H468V531H21V285Z" fill="white" fill-opacity="0.01"/>
</g>
<circle cx="77.5" cy="338.5" r="23.5" fill="#FEFFFF"/>
<circle cx="127.5" cy="340.5" r="10.25" fill="url(#paint1_linear_1011_3)" stroke="white" stroke-width="1.5"/>
<path d="M62.125 455.259C60.7339 455.259 59.549 454.88 58.5703 454.123C57.5916 453.36 56.8438 452.255 56.3267 450.808C55.8097 449.356 55.5511 447.601 55.5511 445.545C55.5511 443.502 55.8097 441.757 56.3267 440.31C56.8499 438.858 57.6009 437.75 58.5795 436.987C59.5644 436.217 60.7462 435.832 62.125 435.832C63.5038 435.832 64.6825 436.217 65.6612 436.987C66.6461 437.75 67.397 438.858 67.9141 440.31C68.4373 441.757 68.6989 443.502 68.6989 445.545C68.6989 447.601 68.4403 449.356 67.9233 450.808C67.4062 452.255 66.6584 453.36 65.6797 454.123C64.701 454.88 63.5161 455.259 62.125 455.259ZM62.125 453.227C63.5038 453.227 64.5748 452.562 65.3381 451.233C66.1013 449.903 66.483 448.008 66.483 445.545C66.483 443.908 66.3075 442.514 65.9567 441.363C65.612 440.212 65.1134 439.335 64.4609 438.732C63.8146 438.128 63.036 437.827 62.125 437.827C60.7585 437.827 59.6906 438.501 58.9212 439.849C58.1518 441.191 57.767 443.089 57.767 445.545C57.767 447.183 57.9394 448.574 58.2841 449.719C58.6288 450.864 59.1243 451.735 59.7706 452.332C60.4231 452.929 61.2079 453.227 62.125 453.227ZM83.055 455.259C81.6639 455.259 80.479 454.88 79.5003 454.123C78.5216 453.36 77.7738 452.255 77.2567 450.808C76.7397 449.356 76.4811 447.601 76.4811 445.545C76.4811 443.502 76.7397 441.757 77.2567 440.31C77.7799 438.858 78.5309 437.75 79.5095 436.987C80.4944 436.217 81.6762 435.832 83.055 435.832C84.4338 435.832 85.6125 436.217 86.5912 436.987C87.5761 437.75 88.327 438.858 88.8441 440.31C89.3673 441.757 89.6289 443.502 89.6289 445.545C89.6289 447.601 89.3703 449.356 88.8533 450.808C88.3363 452.255 87.5884 453.36 86.6097 454.123C85.631 454.88 84.4461 455.259 83.055 455.259ZM83.055 453.227C84.4338 453.227 85.5048 452.562 86.2681 451.233C87.0313 449.903 87.413 448.008 87.413 445.545C87.413 443.908 87.2375 442.514 86.8867 441.363C86.542 440.212 86.0434 439.335 85.3909 438.732C84.7446 438.128 83.966 437.827 83.055 437.827C81.6885 437.827 80.6206 438.501 79.8512 439.849C79.0818 441.191 78.697 443.089 78.697 445.545C78.697 447.183 78.8694 448.574 79.2141 449.719C79.5588 450.864 80.0543 451.735 80.7006 452.332C81.3531 452.929 82.1379 453.227 83.055 453.227ZM103.985 455.259C102.594 455.259 101.409 454.88 100.43 454.123C99.4516 453.36 98.7038 452.255 98.1867 450.808C97.6697 449.356 97.4111 447.601 97.4111 445.545C97.4111 443.502 97.6697 441.757 98.1867 440.31C98.7099 438.858 99.4609 437.75 100.44 436.987C101.424 436.217 102.606 435.832 103.985 435.832C105.364 435.832 106.543 436.217 107.521 436.987C108.506 437.75 109.257 438.858 109.774 440.31C110.297 441.757 110.559 443.502 110.559 445.545C110.559 447.601 110.3 449.356 109.783 450.808C109.266 452.255 108.518 453.36 107.54 454.123C106.561 454.88 105.376 455.259 103.985 455.259ZM103.985 453.227C105.364 453.227 106.435 452.562 107.198 451.233C107.961 449.903 108.343 448.008 108.343 445.545C108.343 443.908 108.168 442.514 107.817 441.363C107.472 440.212 106.973 439.335 106.321 438.732C105.675 438.128 104.896 437.827 103.985 437.827C102.619 437.827 101.551 438.501 100.781 439.849C100.012 441.191 99.627 443.089 99.627 445.545C99.627 447.183 99.7994 448.574 100.144 449.719C100.489 450.864 100.984 451.735 101.631 452.332C102.283 452.929 103.068 453.227 103.985 453.227ZM124.915 455.259C123.524 455.259 122.339 454.88 121.36 454.123C120.382 453.36 119.634 452.255 119.117 450.808C118.6 449.356 118.341 447.601 118.341 445.545C118.341 443.502 118.6 441.757 119.117 440.31C119.64 438.858 120.391 437.75 121.37 436.987C122.354 436.217 123.536 435.832 124.915 435.832C126.294 435.832 127.473 436.217 128.451 436.987C129.436 437.75 130.187 438.858 130.704 440.31C131.227 441.757 131.489 443.502 131.489 445.545C131.489 447.601 131.23 449.356 130.713 450.808C130.196 452.255 129.448 453.36 128.47 454.123C127.491 454.88 126.306 455.259 124.915 455.259ZM124.915 453.227C126.294 453.227 127.365 452.562 128.128 451.233C128.891 449.903 129.273 448.008 129.273 445.545C129.273 443.908 129.098 442.514 128.747 441.363C128.402 440.212 127.903 439.335 127.251 438.732C126.605 438.128 125.826 437.827 124.915 437.827C123.549 437.827 122.481 438.501 121.711 439.849C120.942 441.191 120.557 443.089 120.557 445.545C120.557 447.183 120.729 448.574 121.074 449.719C121.419 450.864 121.914 451.735 122.561 452.332C123.213 452.929 123.998 453.227 124.915 453.227ZM157.838 455.259C156.446 455.259 155.262 454.88 154.283 454.123C153.304 453.36 152.556 452.255 152.039 450.808C151.522 449.356 151.264 447.601 151.264 445.545C151.264 443.502 151.522 441.757 152.039 440.31C152.562 438.858 153.313 437.75 154.292 436.987C155.277 436.217 156.459 435.832 157.838 435.832C159.216 435.832 160.395 436.217 161.374 436.987C162.359 437.75 163.11 438.858 163.627 440.31C164.15 441.757 164.411 443.502 164.411 445.545C164.411 447.601 164.153 449.356 163.636 450.808C163.119 452.255 162.371 453.36 161.392 454.123C160.413 454.88 159.229 455.259 157.838 455.259ZM157.838 453.227C159.216 453.227 160.287 452.562 161.051 451.233C161.814 449.903 162.195 448.008 162.195 445.545C162.195 443.908 162.02 442.514 161.669 441.363C161.324 440.212 160.826 439.335 160.173 438.732C159.527 438.128 158.748 437.827 157.838 437.827C156.471 437.827 155.403 438.501 154.634 439.849C153.864 441.191 153.48 443.089 153.48 445.545C153.48 447.183 153.652 448.574 153.997 449.719C154.341 450.864 154.837 451.735 155.483 452.332C156.136 452.929 156.92 453.227 157.838 453.227ZM178.768 455.259C177.376 455.259 176.192 454.88 175.213 454.123C174.234 453.36 173.486 452.255 172.969 450.808C172.452 449.356 172.194 447.601 172.194 445.545C172.194 443.502 172.452 441.757 172.969 440.31C173.492 438.858 174.243 437.75 175.222 436.987C176.207 436.217 177.389 435.832 178.768 435.832C180.146 435.832 181.325 436.217 182.304 436.987C183.289 437.75 184.04 438.858 184.557 440.31C185.08 441.757 185.341 443.502 185.341 445.545C185.341 447.601 185.083 449.356 184.566 450.808C184.049 452.255 183.301 453.36 182.322 454.123C181.343 454.88 180.159 455.259 178.768 455.259ZM178.768 453.227C180.146 453.227 181.217 452.562 181.981 451.233C182.744 449.903 183.125 448.008 183.125 445.545C183.125 443.908 182.95 442.514 182.599 441.363C182.254 440.212 181.756 439.335 181.103 438.732C180.457 438.128 179.678 437.827 178.768 437.827C177.401 437.827 176.333 438.501 175.564 439.849C174.794 441.191 174.41 443.089 174.41 445.545C174.41 447.183 174.582 448.574 174.927 449.719C175.271 450.864 175.767 451.735 176.413 452.332C177.066 452.929 177.85 453.227 178.768 453.227ZM199.697 455.259C198.306 455.259 197.122 454.88 196.143 454.123C195.164 453.36 194.416 452.255 193.899 450.808C193.382 449.356 193.124 447.601 193.124 445.545C193.124 443.502 193.382 441.757 193.899 440.31C194.422 438.858 195.173 437.75 196.152 436.987C197.137 436.217 198.319 435.832 199.697 435.832C201.076 435.832 202.255 436.217 203.234 436.987C204.219 437.75 204.97 438.858 205.487 440.31C206.01 441.757 206.271 443.502 206.271 445.545C206.271 447.601 206.013 449.356 205.496 450.808C204.979 452.255 204.231 453.36 203.252 454.123C202.273 454.88 201.089 455.259 199.697 455.259ZM199.697 453.227C201.076 453.227 202.147 452.562 202.911 451.233C203.674 449.903 204.055 448.008 204.055 445.545C204.055 443.908 203.88 442.514 203.529 441.363C203.184 440.212 202.686 439.335 202.033 438.732C201.387 438.128 200.608 437.827 199.697 437.827C198.331 437.827 197.263 438.501 196.494 439.849C195.724 441.191 195.34 443.089 195.34 445.545C195.34 447.183 195.512 448.574 195.857 449.719C196.201 450.864 196.697 451.735 197.343 452.332C197.996 452.929 198.78 453.227 199.697 453.227ZM220.628 455.259C219.236 455.259 218.052 454.88 217.073 454.123C216.094 453.36 215.346 452.255 214.829 450.808C214.312 449.356 214.054 447.601 214.054 445.545C214.054 443.502 214.312 441.757 214.829 440.31C215.352 438.858 216.103 437.75 217.082 436.987C218.067 436.217 219.249 435.832 220.628 435.832C222.006 435.832 223.185 436.217 224.164 436.987C225.149 437.75 225.9 438.858 226.417 440.31C226.94 441.757 227.201 443.502 227.201 445.545C227.201 447.601 226.943 449.356 226.426 450.808C225.909 452.255 225.161 453.36 224.182 454.123C223.203 454.88 222.019 455.259 220.628 455.259ZM220.628 453.227C222.006 453.227 223.077 452.562 223.841 451.233C224.604 449.903 224.985 448.008 224.985 445.545C224.985 443.908 224.81 442.514 224.459 441.363C224.114 440.212 223.616 439.335 222.963 438.732C222.317 438.128 221.538 437.827 220.628 437.827C219.261 437.827 218.193 438.501 217.424 439.849C216.654 441.191 216.27 443.089 216.27 445.545C216.27 447.183 216.442 448.574 216.787 449.719C217.131 450.864 217.627 451.735 218.273 452.332C218.926 452.929 219.71 453.227 220.628 453.227ZM253.55 455.259C252.159 455.259 250.974 454.88 249.995 454.123C249.017 453.36 248.269 452.255 247.752 450.808C247.235 449.356 246.976 447.601 246.976 445.545C246.976 443.502 247.235 441.757 247.752 440.31C248.275 438.858 249.026 437.75 250.005 436.987C250.989 436.217 252.171 435.832 253.55 435.832C254.929 435.832 256.108 436.217 257.086 436.987C258.071 437.75 258.822 438.858 259.339 440.31C259.862 441.757 260.124 443.502 260.124 445.545C260.124 447.601 259.865 449.356 259.348 450.808C258.831 452.255 258.083 453.36 257.105 454.123C256.126 454.88 254.941 455.259 253.55 455.259ZM253.55 453.227C254.929 453.227 256 452.562 256.763 451.233C257.526 449.903 257.908 448.008 257.908 445.545C257.908 443.908 257.733 442.514 257.382 441.363C257.037 440.212 256.538 439.335 255.886 438.732C255.24 438.128 254.461 437.827 253.55 437.827C252.184 437.827 251.116 438.501 250.346 439.849C249.577 441.191 249.192 443.089 249.192 445.545C249.192 447.183 249.364 448.574 249.709 449.719C250.054 450.864 250.549 451.735 251.196 452.332C251.848 452.929 252.633 453.227 253.55 453.227ZM274.48 455.259C273.089 455.259 271.904 454.88 270.925 454.123C269.947 453.36 269.199 452.255 268.682 450.808C268.165 449.356 267.906 447.601 267.906 445.545C267.906 443.502 268.165 441.757 268.682 440.31C269.205 438.858 269.956 437.75 270.935 436.987C271.919 436.217 273.101 435.832 274.48 435.832C275.859 435.832 277.038 436.217 278.016 436.987C279.001 437.75 279.752 438.858 280.269 440.31C280.792 441.757 281.054 443.502 281.054 445.545C281.054 447.601 280.795 449.356 280.278 450.808C279.761 452.255 279.013 453.36 278.035 454.123C277.056 454.88 275.871 455.259 274.48 455.259ZM274.48 453.227C275.859 453.227 276.93 452.562 277.693 451.233C278.456 449.903 278.838 448.008 278.838 445.545C278.838 443.908 278.663 442.514 278.312 441.363C277.967 440.212 277.468 439.335 276.816 438.732C276.17 438.128 275.391 437.827 274.48 437.827C273.114 437.827 272.046 438.501 271.276 439.849C270.507 441.191 270.122 443.089 270.122 445.545C270.122 447.183 270.294 448.574 270.639 449.719C270.984 450.864 271.479 451.735 272.126 452.332C272.778 452.929 273.563 453.227 274.48 453.227ZM295.41 455.259C294.019 455.259 292.834 454.88 291.855 454.123C290.877 453.36 290.129 452.255 289.612 450.808C289.095 449.356 288.836 447.601 288.836 445.545C288.836 443.502 289.095 441.757 289.612 440.31C290.135 438.858 290.886 437.75 291.865 436.987C292.849 436.217 294.031 435.832 295.41 435.832C296.789 435.832 297.968 436.217 298.946 436.987C299.931 437.75 300.682 438.858 301.199 440.31C301.722 441.757 301.984 443.502 301.984 445.545C301.984 447.601 301.725 449.356 301.208 450.808C300.691 452.255 299.943 453.36 298.965 454.123C297.986 454.88 296.801 455.259 295.41 455.259ZM295.41 453.227C296.789 453.227 297.86 452.562 298.623 451.233C299.386 449.903 299.768 448.008 299.768 445.545C299.768 443.908 299.593 442.514 299.242 441.363C298.897 440.212 298.398 439.335 297.746 438.732C297.1 438.128 296.321 437.827 295.41 437.827C294.044 437.827 292.976 438.501 292.206 439.849C291.437 441.191 291.052 443.089 291.052 445.545C291.052 447.183 291.224 448.574 291.569 449.719C291.914 450.864 292.409 451.735 293.056 452.332C293.708 452.929 294.493 453.227 295.41 453.227ZM316.34 455.259C314.949 455.259 313.764 454.88 312.785 454.123C311.807 453.36 311.059 452.255 310.542 450.808C310.025 449.356 309.766 447.601 309.766 445.545C309.766 443.502 310.025 441.757 310.542 440.31C311.065 438.858 311.816 437.75 312.795 436.987C313.779 436.217 314.961 435.832 316.34 435.832C317.719 435.832 318.898 436.217 319.876 436.987C320.861 437.75 321.612 438.858 322.129 440.31C322.652 441.757 322.914 443.502 322.914 445.545C322.914 447.601 322.655 449.356 322.138 450.808C321.621 452.255 320.873 453.36 319.895 454.123C318.916 454.88 317.731 455.259 316.34 455.259ZM316.34 453.227C317.719 453.227 318.79 452.562 319.553 451.233C320.316 449.903 320.698 448.008 320.698 445.545C320.698 443.908 320.523 442.514 320.172 441.363C319.827 440.212 319.328 439.335 318.676 438.732C318.03 438.128 317.251 437.827 316.34 437.827C314.974 437.827 313.906 438.501 313.136 439.849C312.367 441.191 311.982 443.089 311.982 445.545C311.982 447.183 312.154 448.574 312.499 449.719C312.844 450.864 313.339 451.735 313.986 452.332C314.638 452.929 315.423 453.227 316.34 453.227ZM349.263 455.259C347.871 455.259 346.687 454.88 345.708 454.123C344.729 453.36 343.981 452.255 343.464 450.808C342.947 449.356 342.689 447.601 342.689 445.545C342.689 443.502 342.947 441.757 343.464 440.31C343.987 438.858 344.738 437.75 345.717 436.987C346.702 436.217 347.884 435.832 349.263 435.832C350.641 435.832 351.82 436.217 352.799 436.987C353.784 437.75 354.535 438.858 355.052 440.31C355.575 441.757 355.836 443.502 355.836 445.545C355.836 447.601 355.578 449.356 355.061 450.808C354.544 452.255 353.796 453.36 352.817 454.123C351.839 454.88 350.654 455.259 349.263 455.259ZM349.263 453.227C350.641 453.227 351.712 452.562 352.476 451.233C353.239 449.903 353.62 448.008 353.62 445.545C353.62 443.908 353.445 442.514 353.094 441.363C352.749 440.212 352.251 439.335 351.598 438.732C350.952 438.128 350.173 437.827 349.263 437.827C347.896 437.827 346.828 438.501 346.059 439.849C345.289 441.191 344.905 443.089 344.905 445.545C344.905 447.183 345.077 448.574 345.422 449.719C345.766 450.864 346.262 451.735 346.908 452.332C347.561 452.929 348.345 453.227 349.263 453.227ZM370.193 455.259C368.801 455.259 367.617 454.88 366.638 454.123C365.659 453.36 364.911 452.255 364.394 450.808C363.877 449.356 363.619 447.601 363.619 445.545C363.619 443.502 363.877 441.757 364.394 440.31C364.917 438.858 365.668 437.75 366.647 436.987C367.632 436.217 368.814 435.832 370.193 435.832C371.571 435.832 372.75 436.217 373.729 436.987C374.714 437.75 375.465 438.858 375.982 440.31C376.505 441.757 376.766 443.502 376.766 445.545C376.766 447.601 376.508 449.356 375.991 450.808C375.474 452.255 374.726 453.36 373.747 454.123C372.768 454.88 371.584 455.259 370.193 455.259ZM370.193 453.227C371.571 453.227 372.642 452.562 373.406 451.233C374.169 449.903 374.55 448.008 374.55 445.545C374.55 443.908 374.375 442.514 374.024 441.363C373.679 440.212 373.181 439.335 372.528 438.732C371.882 438.128 371.103 437.827 370.193 437.827C368.826 437.827 367.758 438.501 366.989 439.849C366.219 441.191 365.835 443.089 365.835 445.545C365.835 447.183 366.007 448.574 366.352 449.719C366.696 450.864 367.192 451.735 367.838 452.332C368.491 452.929 369.275 453.227 370.193 453.227ZM391.122 455.259C389.731 455.259 388.547 454.88 387.568 454.123C386.589 453.36 385.841 452.255 385.324 450.808C384.807 449.356 384.549 447.601 384.549 445.545C384.549 443.502 384.807 441.757 385.324 440.31C385.847 438.858 386.598 437.75 387.577 436.987C388.562 436.217 389.744 435.832 391.122 435.832C392.501 435.832 393.68 436.217 394.659 436.987C395.644 437.75 396.395 438.858 396.912 440.31C397.435 441.757 397.696 443.502 397.696 445.545C397.696 447.601 397.438 449.356 396.921 450.808C396.404 452.255 395.656 453.36 394.677 454.123C393.698 454.88 392.514 455.259 391.122 455.259ZM391.122 453.227C392.501 453.227 393.572 452.562 394.336 451.233C395.099 449.903 395.48 448.008 395.48 445.545C395.48 443.908 395.305 442.514 394.954 441.363C394.609 440.212 394.111 439.335 393.458 438.732C392.812 438.128 392.033 437.827 391.122 437.827C389.756 437.827 388.688 438.501 387.919 439.849C387.149 441.191 386.765 443.089 386.765 445.545C386.765 447.183 386.937 448.574 387.282 449.719C387.626 450.864 388.122 451.735 388.768 452.332C389.421 452.929 390.205 453.227 391.122 453.227ZM412.052 455.259C410.661 455.259 409.476 454.88 408.498 454.123C407.519 453.36 406.771 452.255 406.254 450.808C405.737 449.356 405.479 447.601 405.479 445.545C405.479 443.502 405.737 441.757 406.254 440.31C406.777 438.858 407.528 437.75 408.507 436.987C409.492 436.217 410.674 435.832 412.052 435.832C413.431 435.832 414.61 436.217 415.589 436.987C416.574 437.75 417.325 438.858 417.842 440.31C418.365 441.757 418.626 443.502 418.626 445.545C418.626 447.601 418.368 449.356 417.851 450.808C417.334 452.255 416.586 453.36 415.607 454.123C414.628 454.88 413.444 455.259 412.052 455.259ZM412.052 453.227C413.431 453.227 414.502 452.562 415.266 451.233C416.029 449.903 416.41 448.008 416.41 445.545C416.41 443.908 416.235 442.514 415.884 441.363C415.539 440.212 415.041 439.335 414.388 438.732C413.742 438.128 412.963 437.827 412.052 437.827C410.686 437.827 409.618 438.501 408.849 439.849C408.079 441.191 407.695 443.089 407.695 445.545C407.695 447.183 407.867 448.574 408.212 449.719C408.556 450.864 409.052 451.735 409.698 452.332C410.351 452.929 411.135 453.227 412.052 453.227Z" fill="white"/>
<path d="M13.564 499.163V492.758H15.4619V499.163C15.4619 499.78 15.3265 500.312 15.0557 500.756C14.7848 501.196 14.4146 501.535 13.9448 501.771C13.4793 502.008 12.9546 502.127 12.3706 502.127C11.7655 502.127 11.2301 502.025 10.7646 501.822C10.2992 501.619 9.93311 501.308 9.6665 500.889C9.3999 500.466 9.2666 499.931 9.2666 499.283H11.1772C11.1772 499.622 11.2238 499.89 11.3169 500.089C11.4142 500.288 11.5518 500.43 11.7295 500.515C11.9072 500.599 12.1209 500.642 12.3706 500.642C12.6118 500.642 12.8213 500.584 12.999 500.47C13.1768 500.356 13.3143 500.189 13.4116 499.969C13.5132 499.749 13.564 499.48 13.564 499.163ZM23.1751 494.338L20.6614 502H18.6365L22.0706 492.758H23.3592L23.1751 494.338ZM25.2635 502L22.7434 494.338L22.5403 492.758H23.8416L27.2947 502H25.2635ZM25.1492 498.56V500.051H20.2679V498.56H25.1492ZM38.1436 492.758V502H36.2393L32.5259 495.805V502H30.6216V492.758H32.5259L36.2457 498.959V492.758H38.1436ZM48.472 500.515V502H43.5526V500.515H48.472ZM44.1746 492.758V502H42.2704V492.758H44.1746ZM47.8309 496.522V497.969H43.5526V496.522H47.8309ZM48.4657 492.758V494.25H43.5526V492.758H48.4657ZM61.518 494.338L59.0043 502H56.9794L60.4135 492.758H61.702L61.518 494.338ZM63.6063 502L61.0863 494.338L60.8832 492.758H62.1845L65.6376 502H63.6063ZM63.4921 498.56V500.051H58.6107V498.56H63.4921ZM72.5637 498.706H70.2087V497.22H72.5637C72.9276 497.22 73.2238 497.161 73.4523 497.042C73.6808 496.92 73.848 496.75 73.9538 496.535C74.0596 496.319 74.1125 496.076 74.1125 495.805C74.1125 495.53 74.0596 495.274 73.9538 495.037C73.848 494.8 73.6808 494.609 73.4523 494.465C73.2238 494.321 72.9276 494.25 72.5637 494.25H70.8688V502H68.9645V492.758H72.5637C73.2873 492.758 73.9072 492.889 74.4235 493.151C74.944 493.41 75.3418 493.767 75.6169 494.224C75.8919 494.681 76.0295 495.204 76.0295 495.792C76.0295 496.389 75.8919 496.905 75.6169 497.341C75.3418 497.777 74.944 498.113 74.4235 498.35C73.9072 498.587 73.2873 498.706 72.5637 498.706ZM83.4126 498.706H81.0576V497.22H83.4126C83.7765 497.22 84.0727 497.161 84.3012 497.042C84.5297 496.92 84.6969 496.75 84.8027 496.535C84.9085 496.319 84.9614 496.076 84.9614 495.805C84.9614 495.53 84.9085 495.274 84.8027 495.037C84.6969 494.8 84.5297 494.609 84.3012 494.465C84.0727 494.321 83.7765 494.25 83.4126 494.25H81.7177V502H79.8134V492.758H83.4126C84.1362 492.758 84.7561 492.889 85.2724 493.151C85.7929 493.41 86.1907 493.767 86.4658 494.224C86.7408 494.681 86.8784 495.204 86.8784 495.792C86.8784 496.389 86.7408 496.905 86.4658 497.341C86.1907 497.777 85.7929 498.113 85.2724 498.35C84.7561 498.587 84.1362 498.706 83.4126 498.706ZM96.6038 500.515V502H91.9509V500.515H96.6038ZM92.5666 492.758V502H90.6623V492.758H92.5666ZM106.367 500.515V502H101.448V500.515H106.367ZM102.07 492.758V502H100.166V492.758H102.07ZM105.726 496.522V497.969H101.448V496.522H105.726ZM106.361 492.758V494.25H101.448V492.758H106.361ZM114.76 499.582C114.76 499.417 114.734 499.268 114.683 499.137C114.637 499.002 114.548 498.879 114.417 498.769C114.286 498.655 114.102 498.543 113.865 498.433C113.628 498.323 113.321 498.208 112.944 498.09C112.525 497.954 112.127 497.802 111.751 497.633C111.378 497.464 111.048 497.267 110.761 497.042C110.477 496.814 110.253 496.549 110.088 496.249C109.927 495.949 109.846 495.599 109.846 495.202C109.846 494.817 109.931 494.467 110.1 494.154C110.27 493.837 110.507 493.566 110.811 493.342C111.116 493.113 111.476 492.938 111.89 492.815C112.309 492.692 112.769 492.631 113.268 492.631C113.949 492.631 114.544 492.754 115.052 492.999C115.559 493.244 115.953 493.581 116.232 494.008C116.516 494.436 116.658 494.924 116.658 495.475H114.766C114.766 495.204 114.709 494.967 114.595 494.764C114.485 494.556 114.315 494.393 114.087 494.275C113.862 494.156 113.579 494.097 113.236 494.097C112.906 494.097 112.631 494.148 112.411 494.25C112.191 494.347 112.026 494.48 111.916 494.649C111.806 494.814 111.751 495.001 111.751 495.208C111.751 495.365 111.789 495.506 111.865 495.633C111.945 495.76 112.064 495.879 112.221 495.989C112.377 496.099 112.57 496.202 112.798 496.3C113.027 496.397 113.291 496.492 113.592 496.585C114.095 496.738 114.537 496.909 114.918 497.1C115.303 497.29 115.625 497.504 115.883 497.741C116.141 497.978 116.336 498.246 116.467 498.547C116.598 498.847 116.664 499.188 116.664 499.569C116.664 499.971 116.586 500.331 116.429 500.648C116.272 500.965 116.046 501.234 115.75 501.454C115.454 501.674 115.1 501.841 114.69 501.956C114.279 502.07 113.82 502.127 113.312 502.127C112.855 502.127 112.405 502.068 111.96 501.949C111.516 501.826 111.112 501.642 110.748 501.397C110.388 501.152 110.1 500.838 109.885 500.458C109.669 500.077 109.561 499.626 109.561 499.105H111.471C111.471 499.393 111.516 499.637 111.605 499.835C111.694 500.034 111.818 500.195 111.979 500.318C112.144 500.441 112.339 500.529 112.563 500.584C112.792 500.639 113.041 500.667 113.312 500.667C113.642 500.667 113.913 500.62 114.125 500.527C114.341 500.434 114.499 500.305 114.601 500.14C114.707 499.975 114.76 499.789 114.76 499.582ZM126.63 500.515V502H121.711V500.515H126.63ZM122.333 492.758V502H120.429V492.758H122.333ZM125.989 496.522V497.969H121.711V496.522H125.989ZM126.624 492.758V494.25H121.711V492.758H126.624ZM136.413 500.515V502H131.494V500.515H136.413ZM132.116 492.758V502H130.211V492.758H132.116ZM135.772 496.522V497.969H131.494V496.522H135.772ZM136.407 492.758V494.25H131.494V492.758H136.407ZM142.831 502H140.819L140.832 500.515H142.831C143.331 500.515 143.752 500.403 144.094 500.178C144.437 499.95 144.695 499.618 144.869 499.182C145.047 498.746 145.135 498.219 145.135 497.601V497.15C145.135 496.676 145.085 496.26 144.983 495.9C144.886 495.54 144.74 495.238 144.545 494.992C144.35 494.747 144.111 494.563 143.828 494.44C143.544 494.313 143.218 494.25 142.85 494.25H140.781V492.758H142.85C143.468 492.758 144.033 492.864 144.545 493.075C145.061 493.283 145.508 493.581 145.884 493.97C146.261 494.36 146.551 494.825 146.754 495.367C146.961 495.904 147.065 496.503 147.065 497.163V497.601C147.065 498.257 146.961 498.856 146.754 499.397C146.551 499.939 146.261 500.405 145.884 500.794C145.512 501.179 145.066 501.477 144.545 501.689C144.029 501.896 143.457 502 142.831 502ZM141.898 492.758V502H139.994V492.758H141.898Z" fill="white"/>
<path d="M386.383 496.148V497.871C386.383 498.618 386.303 499.263 386.144 499.806C385.984 500.343 385.754 500.785 385.453 501.132C385.157 501.474 384.804 501.727 384.394 501.891C383.983 502.055 383.528 502.137 383.026 502.137C382.625 502.137 382.252 502.087 381.905 501.986C381.559 501.882 381.247 501.72 380.969 501.501C380.695 501.282 380.458 501.007 380.258 500.674C380.062 500.337 379.911 499.936 379.807 499.471C379.702 499.006 379.649 498.473 379.649 497.871V496.148C379.649 495.401 379.729 494.761 379.889 494.228C380.053 493.69 380.283 493.25 380.579 492.908C380.88 492.566 381.235 492.316 381.646 492.156C382.056 491.992 382.511 491.91 383.013 491.91C383.414 491.91 383.785 491.963 384.127 492.067C384.473 492.168 384.785 492.325 385.063 492.539C385.341 492.753 385.578 493.029 385.774 493.366C385.97 493.699 386.121 494.098 386.226 494.562C386.33 495.023 386.383 495.551 386.383 496.148ZM384.407 498.131V495.882C384.407 495.522 384.387 495.207 384.346 494.938C384.309 494.67 384.252 494.442 384.175 494.255C384.097 494.063 384.002 493.909 383.888 493.79C383.774 493.672 383.644 493.585 383.498 493.53C383.352 493.476 383.19 493.448 383.013 493.448C382.789 493.448 382.591 493.492 382.418 493.578C382.249 493.665 382.106 493.804 381.987 493.995C381.869 494.182 381.778 494.433 381.714 494.747C381.655 495.057 381.625 495.435 381.625 495.882V498.131C381.625 498.491 381.643 498.808 381.68 499.081C381.721 499.354 381.78 499.589 381.857 499.785C381.939 499.977 382.035 500.134 382.145 500.257C382.258 500.375 382.388 500.462 382.534 500.517C382.685 500.571 382.849 500.599 383.026 500.599C383.245 500.599 383.439 500.555 383.607 500.469C383.781 500.378 383.926 500.236 384.045 500.045C384.168 499.849 384.259 499.594 384.318 499.279C384.378 498.965 384.407 498.582 384.407 498.131ZM397.712 496.148V497.871C397.712 498.618 397.632 499.263 397.473 499.806C397.313 500.343 397.083 500.785 396.782 501.132C396.486 501.474 396.133 501.727 395.723 501.891C395.312 502.055 394.857 502.137 394.355 502.137C393.954 502.137 393.581 502.087 393.234 501.986C392.888 501.882 392.576 501.72 392.298 501.501C392.024 501.282 391.787 501.007 391.587 500.674C391.391 500.337 391.241 499.936 391.136 499.471C391.031 499.006 390.978 498.473 390.978 497.871V496.148C390.978 495.401 391.058 494.761 391.218 494.228C391.382 493.69 391.612 493.25 391.908 492.908C392.209 492.566 392.564 492.316 392.975 492.156C393.385 491.992 393.84 491.91 394.342 491.91C394.743 491.91 395.114 491.963 395.456 492.067C395.802 492.168 396.115 492.325 396.393 492.539C396.671 492.753 396.908 493.029 397.103 493.366C397.299 493.699 397.45 494.098 397.555 494.562C397.659 495.023 397.712 495.551 397.712 496.148ZM395.736 498.131V495.882C395.736 495.522 395.716 495.207 395.675 494.938C395.638 494.67 395.581 494.442 395.504 494.255C395.426 494.063 395.331 493.909 395.217 493.79C395.103 493.672 394.973 493.585 394.827 493.53C394.681 493.476 394.519 493.448 394.342 493.448C394.118 493.448 393.92 493.492 393.747 493.578C393.578 493.665 393.435 493.804 393.316 493.995C393.198 494.182 393.107 494.433 393.043 494.747C392.984 495.057 392.954 495.435 392.954 495.882V498.131C392.954 498.491 392.972 498.808 393.009 499.081C393.05 499.354 393.109 499.589 393.186 499.785C393.269 499.977 393.364 500.134 393.474 500.257C393.588 500.375 393.717 500.462 393.863 500.517C394.014 500.571 394.178 500.599 394.355 500.599C394.574 500.599 394.768 500.555 394.936 500.469C395.11 500.378 395.255 500.236 395.374 500.045C395.497 499.849 395.588 499.594 395.647 499.279C395.707 498.965 395.736 498.582 395.736 498.131ZM406.676 492.047L403.025 502.854H401.562L405.213 492.047H406.676ZM417.526 496.148V497.871C417.526 498.618 417.446 499.263 417.287 499.806C417.127 500.343 416.897 500.785 416.597 501.132C416.3 501.474 415.947 501.727 415.537 501.891C415.127 502.055 414.671 502.137 414.17 502.137C413.769 502.137 413.395 502.087 413.049 501.986C412.702 501.882 412.39 501.72 412.112 501.501C411.839 501.282 411.602 501.007 411.401 500.674C411.205 500.337 411.055 499.936 410.95 499.471C410.845 499.006 410.793 498.473 410.793 497.871V496.148C410.793 495.401 410.873 494.761 411.032 494.228C411.196 493.69 411.426 493.25 411.723 492.908C412.023 492.566 412.379 492.316 412.789 492.156C413.199 491.992 413.655 491.91 414.156 491.91C414.557 491.91 414.929 491.963 415.27 492.067C415.617 492.168 415.929 492.325 416.207 492.539C416.485 492.753 416.722 493.029 416.918 493.366C417.114 493.699 417.264 494.098 417.369 494.562C417.474 495.023 417.526 495.551 417.526 496.148ZM415.551 498.131V495.882C415.551 495.522 415.53 495.207 415.489 494.938C415.453 494.67 415.396 494.442 415.318 494.255C415.241 494.063 415.145 493.909 415.031 493.79C414.917 493.672 414.787 493.585 414.641 493.53C414.496 493.476 414.334 493.448 414.156 493.448C413.933 493.448 413.735 493.492 413.561 493.578C413.393 493.665 413.249 493.804 413.131 493.995C413.012 494.182 412.921 494.433 412.857 494.747C412.798 495.057 412.768 495.435 412.768 495.882V498.131C412.768 498.491 412.787 498.808 412.823 499.081C412.864 499.354 412.923 499.589 413.001 499.785C413.083 499.977 413.179 500.134 413.288 500.257C413.402 500.375 413.532 500.462 413.678 500.517C413.828 500.571 413.992 500.599 414.17 500.599C414.389 500.599 414.582 500.555 414.751 500.469C414.924 500.378 415.07 500.236 415.188 500.045C415.311 499.849 415.403 499.594 415.462 499.279C415.521 498.965 415.551 498.582 415.551 498.131ZM428.855 496.148V497.871C428.855 498.618 428.776 499.263 428.616 499.806C428.457 500.343 428.226 500.785 427.926 501.132C427.629 501.474 427.276 501.727 426.866 501.891C426.456 502.055 426 502.137 425.499 502.137C425.098 502.137 424.724 502.087 424.378 501.986C424.031 501.882 423.719 501.72 423.441 501.501C423.168 501.282 422.931 501.007 422.73 500.674C422.534 500.337 422.384 499.936 422.279 499.471C422.174 499.006 422.122 498.473 422.122 497.871V496.148C422.122 495.401 422.202 494.761 422.361 494.228C422.525 493.69 422.755 493.25 423.052 492.908C423.352 492.566 423.708 492.316 424.118 492.156C424.528 491.992 424.984 491.91 425.485 491.91C425.886 491.91 426.258 491.963 426.599 492.067C426.946 492.168 427.258 492.325 427.536 492.539C427.814 492.753 428.051 493.029 428.247 493.366C428.443 493.699 428.593 494.098 428.698 494.562C428.803 495.023 428.855 495.551 428.855 496.148ZM426.88 498.131V495.882C426.88 495.522 426.859 495.207 426.818 494.938C426.782 494.67 426.725 494.442 426.647 494.255C426.57 494.063 426.474 493.909 426.36 493.79C426.246 493.672 426.116 493.585 425.971 493.53C425.825 493.476 425.663 493.448 425.485 493.448C425.262 493.448 425.064 493.492 424.89 493.578C424.722 493.665 424.578 493.804 424.46 493.995C424.341 494.182 424.25 494.433 424.186 494.747C424.127 495.057 424.097 495.435 424.097 495.882V498.131C424.097 498.491 424.116 498.808 424.152 499.081C424.193 499.354 424.252 499.589 424.33 499.785C424.412 499.977 424.508 500.134 424.617 500.257C424.731 500.375 424.861 500.462 425.007 500.517C425.157 500.571 425.321 500.599 425.499 500.599C425.718 500.599 425.911 500.555 426.08 500.469C426.253 500.378 426.399 500.236 426.517 500.045C426.64 499.849 426.732 499.594 426.791 499.279C426.85 498.965 426.88 498.582 426.88 498.131Z" fill="white"/>
</g>
<rect x="21.5" y="285.5" width="446" height="245" rx="9.5" stroke="black" shape-rendering="crispEdges"/>
<rect x="21.5" y="285.5" width="446" height="245" rx="9.5" stroke="black" stroke-opacity="0.2" shape-rendering="crispEdges"/>
<rect x="21.5" y="285.5" width="446" height="245" rx="9.5" stroke="black" stroke-opacity="0.2" shape-rendering="crispEdges"/>
</g>
</g>
<rect x="0.5" y="0.5" width="745" height="556" rx="4.5" stroke="#9747FF" stroke-dasharray="10 5"/>
<defs>
<filter id="filter0_d_1011_3" x="-4" y="0" width="455" height="254" filterUnits="userSpaceOnUse" color-interpolation-filters="sRGB">
<feFlood flood-opacity="0" result="BackgroundImageFix"/>
<feColorMatrix in="SourceAlpha" type="matrix" values="0 0 0 0 0 0 0 0 0 0 0 0 0 0 0 0 0 0 127 0" result="hardAlpha"/>
<feOffset dy="4"/>
<feGaussianBlur stdDeviation="2"/>
<feComposite in2="hardAlpha" operator="out"/>
<feColorMatrix type="matrix" values="0 0 0 0 0 0 0 0 0 0 0 0 0 0 0 0 0 0 0.25 0"/>
<feBlend mode="normal" in2="BackgroundImageFix" result="effect1_dropShadow_1011_3"/>
<feBlend mode="normal" in="SourceGraphic" in2="effect1_dropShadow_1011_3" result="shape"/>
</filter>
<filter id="filter1_b_1011_3" x="-95" y="-95" width="637" height="436" filterUnits="userSpaceOnUse" color-interpolation-filters="sRGB">
<feFlood flood-opacity="0" result="BackgroundImageFix"/>
<feGaussianBlur in="BackgroundImageFix" stdDeviation="47.5"/>
<feComposite in2="SourceAlpha" operator="in" result="effect1_backgroundBlur_1011_3"/>
<feBlend mode="normal" in="SourceGraphic" in2="effect1_backgroundBlur_1011_3" result="shape"/>
</filter>
<filter id="filter2_d_1011_3" x="17" y="285" width="455" height="254" filterUnits="userSpaceOnUse" color-interpolation-filters="sRGB">
<feFlood flood-opacity="0" result="BackgroundImageFix"/>
<feColorMatrix in="SourceAlpha" type="matrix" values="0 0 0 0 0 0 0 0 0 0 0 0 0 0 0 0 0 0 127 0" result="hardAlpha"/>
<feOffset dy="4"/>
<feGaussianBlur stdDeviation="2"/>
<feComposite in2="hardAlpha" operator="out"/>
<feColorMatrix type="matrix" values="0 0 0 0 0 0 0 0 0 0 0 0 0 0 0 0 0 0 0.25 0"/>
<feBlend mode="normal" in2="BackgroundImageFix" result="effect1_dropShadow_1011_3"/>
<feBlend mode="normal" in="SourceGraphic" in2="effect1_dropShadow_1011_3" result="shape"/>
</filter>
<filter id="filter3_b_1011_3" x="-74" y="190" width="637" height="436" filterUnits="userSpaceOnUse" color-interpolation-filters="sRGB">
<feFlood flood-opacity="0" result="BackgroundImageFix"/>
<feGaussianBlur in="BackgroundImageFix" stdDeviation="47.5"/>
<feComposite in2="SourceAlpha" operator="in" result="effect1_backgroundBlur_1011_3"/>
<feBlend mode="normal" in="SourceGraphic" in2="effect1_backgroundBlur_1011_3" result="shape"/>
</filter>
<linearGradient id="paint0_linear_1011_3" x1="100.5" y1="50" x2="116" y2="62" gradientUnits="userSpaceOnUse">
<stop stop-color="#623FF2"/>
<stop offset="1" stop-color="#5E37EC"/>
</linearGradient>
<linearGradient id="paint1_linear_1011_3" x1="121.5" y1="335" x2="137" y2="347" gradientUnits="userSpaceOnUse">
<stop stop-color="#623FF2"/>
<stop offset="1" stop-color="#5E37EC"/>
</linearGradient>
<clipPath id="clip0_1011_3">
<rect width="746" height="557" rx="5" fill="white"/>
</clipPath>
<clipPath id="clip1_1011_3">
<rect width="447" height="246" rx="10" fill="white"/>
</clipPath>
<clipPath id="clip2_1011_3">
<rect x="21" y="285" width="447" height="246" rx="10" fill="white"/>
</clipPath>
</defs>
</svg>
